<svg width="509" height="87" viewBox="0 0 509 87" fill="none" xmlns="http://www.w3.org/2000/svg">
<path d="M50.1467 45.5002C50.1467 47.7932 49.2358 49.9923 47.6144 51.6137C45.993 53.2351 43.7939 54.146 41.5008 54.146C39.2078 54.146 37.0087 53.2351 35.3873 51.6137C33.7659 49.9923 32.855 47.7932 32.855 45.5002C32.855 43.2072 33.7659 41.0081 35.3873 39.3867C37.0087 37.7653 39.2078 36.8544 41.5008 36.8544C43.7939 36.8544 45.993 37.7653 47.6144 39.3867C49.2358 41.0081 50.1467 43.2072 50.1467 45.5002ZM76.0842 45.5002C76.0842 64.5902 60.5908 80.0835 41.5008 80.0835C22.4108 80.0835 6.91751 64.5902 6.91751 45.5002C6.91751 26.4102 22.4108 10.9169 41.5008 10.9169C60.5908 10.9169 76.0842 26.4102 76.0842 45.5002ZM69.1675 45.5002H55.3342C55.3342 37.8573 49.1438 31.6669 41.5008 31.6669C33.8579 31.6669 27.6675 37.8573 27.6675 45.5002H13.8342C13.8342 60.7515 26.2496 73.1669 41.5008 73.1669C56.7521 73.1669 69.1675 60.7515 69.1675 45.5002Z" fill="black"/>
<path d="M130.208 39.536C130.208 42.1387 129.611 44.528 128.416 46.704C127.221 48.8373 125.387 50.5653 122.912 51.888C120.437 53.2107 117.365 53.872 113.696 53.872H106.912V70H95.968V25.072H113.696C117.28 25.072 120.309 25.6907 122.784 26.928C125.259 28.1653 127.115 29.872 128.352 32.048C129.589 34.224 130.208 36.72 130.208 39.536ZM112.864 45.168C114.955 45.168 116.512 44.6773 117.536 43.696C118.56 42.7147 119.072 41.328 119.072 39.536C119.072 37.744 118.56 36.3573 117.536 35.376C116.512 34.3947 114.955 33.904 112.864 33.904H106.912V45.168H112.864ZM152.162 70.512C148.663 70.512 145.506 69.7653 142.69 68.272C139.916 66.7787 137.719 64.6453 136.098 61.872C134.519 59.0987 133.73 55.856 133.73 52.144C133.73 48.4747 134.54 45.2533 136.161 42.48C137.783 39.664 140.002 37.5093 142.818 36.016C145.634 34.5227 148.791 33.776 152.29 33.776C155.788 33.776 158.946 34.5227 161.762 36.016C164.578 37.5093 166.796 39.664 168.418 42.48C170.039 45.2533 170.85 48.4747 170.85 52.144C170.85 55.8133 170.018 59.056 168.354 61.872C166.732 64.6453 164.492 66.7787 161.634 68.272C158.818 69.7653 155.66 70.512 152.162 70.512ZM152.162 61.04C154.252 61.04 156.023 60.272 157.474 58.736C158.967 57.2 159.714 55.0027 159.714 52.144C159.714 49.2853 158.988 47.088 157.538 45.552C156.13 44.016 154.38 43.248 152.29 43.248C150.156 43.248 148.386 44.016 146.978 45.552C145.57 47.0453 144.866 49.2427 144.866 52.144C144.866 55.0027 145.548 57.2 146.914 58.736C148.322 60.272 150.071 61.04 152.162 61.04ZM198.48 70L187.6 55.024V70H176.656V22.64H187.6V48.816L198.416 34.288H211.92L197.072 52.208L212.048 70H198.48ZM249.882 51.568C249.882 52.592 249.818 53.6587 249.69 54.768H224.922C225.093 56.9867 225.797 58.6933 227.034 59.888C228.314 61.04 229.871 61.616 231.706 61.616C234.437 61.616 236.335 60.464 237.402 58.16H249.05C248.453 60.5067 247.365 62.6187 245.786 64.496C244.25 66.3733 242.309 67.8453 239.962 68.912C237.615 69.9787 234.991 70.512 232.09 70.512C228.591 70.512 225.477 69.7653 222.746 68.272C220.015 66.7787 217.882 64.6453 216.346 61.872C214.81 59.0987 214.042 55.856 214.042 52.144C214.042 48.432 214.789 45.1893 216.282 42.416C217.818 39.6427 219.951 37.5093 222.682 36.016C225.413 34.5227 228.549 33.776 232.09 33.776C235.546 33.776 238.618 34.5013 241.306 35.952C243.994 37.4027 246.085 39.472 247.578 42.16C249.114 44.848 249.882 47.984 249.882 51.568ZM238.682 48.688C238.682 46.8107 238.042 45.3173 236.762 44.208C235.482 43.0987 233.882 42.544 231.962 42.544C230.127 42.544 228.57 43.0773 227.29 44.144C226.053 45.2107 225.285 46.7253 224.986 48.688H238.682ZM253.48 52.08C253.48 48.4107 254.162 45.1893 255.528 42.416C256.936 39.6427 258.834 37.5093 261.224 36.016C263.613 34.5227 266.28 33.776 269.224 33.776C271.57 33.776 273.704 34.2667 275.624 35.248C277.586 36.2293 279.122 37.552 280.232 39.216V22.64H291.176V70H280.232V64.88C279.208 66.5867 277.736 67.952 275.816 68.976C273.938 70 271.741 70.512 269.224 70.512C266.28 70.512 263.613 69.7653 261.224 68.272C258.834 66.736 256.936 64.5813 255.528 61.808C254.162 58.992 253.48 55.7493 253.48 52.08ZM280.232 52.144C280.232 49.4133 279.464 47.2587 277.928 45.68C276.434 44.1013 274.6 43.312 272.424 43.312C270.248 43.312 268.392 44.1013 266.856 45.68C265.362 47.216 264.616 49.3493 264.616 52.08C264.616 54.8107 265.362 56.9867 266.856 58.608C268.392 60.1867 270.248 60.976 272.424 60.976C274.6 60.976 276.434 60.1867 277.928 58.608C279.464 57.0293 280.232 54.8747 280.232 52.144ZM332.757 51.568C332.757 52.592 332.693 53.6587 332.565 54.768H307.797C307.968 56.9867 308.672 58.6933 309.909 59.888C311.189 61.04 312.746 61.616 314.581 61.616C317.312 61.616 319.21 60.464 320.277 58.16H331.925C331.328 60.5067 330.24 62.6187 328.661 64.496C327.125 66.3733 325.184 67.8453 322.837 68.912C320.49 69.9787 317.866 70.512 314.965 70.512C311.466 70.512 308.352 69.7653 305.621 68.272C302.89 66.7787 300.757 64.6453 299.221 61.872C297.685 59.0987 296.917 55.856 296.917 52.144C296.917 48.432 297.664 45.1893 299.157 42.416C300.693 39.6427 302.826 37.5093 305.557 36.016C308.288 34.5227 311.424 33.776 314.965 33.776C318.421 33.776 321.493 34.5013 324.181 35.952C326.869 37.4027 328.96 39.472 330.453 42.16C331.989 44.848 332.757 47.984 332.757 51.568ZM321.557 48.688C321.557 46.8107 320.917 45.3173 319.637 44.208C318.357 43.0987 316.757 42.544 314.837 42.544C313.002 42.544 311.445 43.0773 310.165 44.144C308.928 45.2107 308.16 46.7253 307.861 48.688H321.557ZM359.651 70L352.803 60.08L347.043 70H335.203L346.979 51.76L334.883 34.288H347.171L354.019 44.144L359.779 34.288H371.619L359.651 52.272L371.939 70H359.651ZM381.276 70.512C379.356 70.512 377.777 69.9573 376.54 68.848C375.345 67.696 374.748 66.288 374.748 64.624C374.748 62.9173 375.345 61.488 376.54 60.336C377.777 59.184 379.356 58.608 381.276 58.608C383.153 58.608 384.689 59.184 385.884 60.336C387.121 61.488 387.74 62.9173 387.74 64.624C387.74 66.288 387.121 67.696 385.884 68.848C384.689 69.9573 383.153 70.512 381.276 70.512ZM439.786 33.904C444.223 33.904 447.743 35.248 450.346 37.936C452.991 40.624 454.314 44.3573 454.314 49.136V70H443.434V50.608C443.434 48.304 442.815 46.5333 441.578 45.296C440.383 44.016 438.719 43.376 436.586 43.376C434.453 43.376 432.767 44.016 431.53 45.296C430.335 46.5333 429.738 48.304 429.738 50.608V70H418.858V50.608C418.858 48.304 418.239 46.5333 417.002 45.296C415.807 44.016 414.143 43.376 412.01 43.376C409.877 43.376 408.191 44.016 406.954 45.296C405.759 46.5333 405.162 48.304 405.162 50.608V70H394.218V34.288H405.162V38.768C406.271 37.2747 407.722 36.1013 409.514 35.248C411.306 34.352 413.333 33.904 415.594 33.904C418.282 33.904 420.671 34.48 422.762 35.632C424.895 36.784 426.559 38.4267 427.754 40.56C428.991 38.5973 430.677 36.9973 432.81 35.76C434.943 34.5227 437.269 33.904 439.786 33.904ZM495.632 51.568C495.632 52.592 495.568 53.6587 495.44 54.768H470.672C470.843 56.9867 471.547 58.6933 472.784 59.888C474.064 61.04 475.621 61.616 477.456 61.616C480.187 61.616 482.085 60.464 483.152 58.16H494.8C494.203 60.5067 493.115 62.6187 491.536 64.496C490 66.3733 488.059 67.8453 485.712 68.912C483.365 69.9787 480.741 70.512 477.84 70.512C474.341 70.512 471.227 69.7653 468.496 68.272C465.765 66.7787 463.632 64.6453 462.096 61.872C460.56 59.0987 459.792 55.856 459.792 52.144C459.792 48.432 460.539 45.1893 462.032 42.416C463.568 39.6427 465.701 37.5093 468.432 36.016C471.163 34.5227 474.299 33.776 477.84 33.776C481.296 33.776 484.368 34.5013 487.056 35.952C489.744 37.4027 491.835 39.472 493.328 42.16C494.864 44.848 495.632 47.984 495.632 51.568ZM484.432 48.688C484.432 46.8107 483.792 45.3173 482.512 44.208C481.232 43.0987 479.632 42.544 477.712 42.544C475.877 42.544 474.32 43.0773 473.04 44.144C471.803 45.2107 471.035 46.7253 470.736 48.688H484.432Z" fill="black"/>
</svg>
